<svg id="Layer_1" data-name="Layer 1" xmlns="http://www.w3.org/2000/svg" width="40mm" height="4.91mm" viewBox="0 0 113.39 13.92">
  <defs>
    <style>
      .cls-1 {
        fill: #262424;
      }
    </style>
  </defs>
  <title>bright_park_logo3</title>
  <g>
    <rect class="cls-1" x="14.9" y="8.27" width="3.87" height="2.1"/>
    <rect class="cls-1" y="8.27" width="3.87" height="2.1"/>
    <rect class="cls-1" x="8.35" width="2.1" height="3.87"/>
    <rect class="cls-1" x="21.17" y="24.87" width="2.1" height="3.87" transform="translate(-30.56 0.84) rotate(-45)"/>
    <rect class="cls-1" x="30.85" y="25.76" width="3.87" height="2.1" transform="translate(-27.46 8.31) rotate(-45)"/>
  </g>
  <g>
    <path class="cls-1" d="M52.86,26.08v1.16a3.27,3.27,0,0,1,2.69-1.35,3.64,3.64,0,0,1,3.61,3.89,3.68,3.68,0,0,1-3.65,3.94A3.19,3.19,0,0,1,53,32.51v4.13H51.12V26.08Zm0,3.72a2.18,2.18,0,1,0,2.18-2.23A2.14,2.14,0,0,0,52.89,29.8Z" transform="translate(-18.11 -22.73)"/>
    <path class="cls-1" d="M60.51,29.83a3.67,3.67,0,0,1,3.64-3.94,3.2,3.2,0,0,1,2.67,1.34V26.08h1.73v7.45H66.82V32.34a3.19,3.19,0,0,1-2.7,1.38A3.64,3.64,0,0,1,60.51,29.83Zm6.27,0A2.18,2.18,0,1,0,64.6,32,2.15,2.15,0,0,0,66.78,29.81Z" transform="translate(-18.11 -22.73)"/>
    <path class="cls-1" d="M116.81,26.08v1.16a3.24,3.24,0,0,1,2.68-1.35,3.64,3.64,0,0,1,3.62,3.89,3.68,3.68,0,0,1-3.66,3.94,3.19,3.19,0,0,1-2.56-1.21v4.13h-1.83V26.08Zm0,3.72A2.17,2.17,0,1,0,119,27.57,2.13,2.13,0,0,0,116.84,29.8Z" transform="translate(-18.11 -22.73)"/>
    <path class="cls-1" d="M105.33,29.83A3.67,3.67,0,0,1,109,25.89a3.2,3.2,0,0,1,2.67,1.34V26.08h1.73v7.45h-1.73V32.34a3.19,3.19,0,0,1-2.7,1.38A3.63,3.63,0,0,1,105.33,29.83Zm6.27,0A2.19,2.19,0,1,0,109.42,32,2.15,2.15,0,0,0,111.6,29.81Z" transform="translate(-18.11 -22.73)"/>
    <path class="cls-1" d="M126.34,26.08v3.3l2.84-3.3h2.1l-3.13,3.57,3.35,3.88h-2.21l-2.95-3.48v3.48H124.5V26.08Z" transform="translate(-18.11 -22.73)"/>
    <path class="cls-1" d="M75.33,26.08v4.17A1.61,1.61,0,0,1,73.66,32,1.45,1.45,0,0,1,72,30.43V26.08H70.17v4.63a2.77,2.77,0,0,0,2.91,3,2.84,2.84,0,0,0,2.33-1.21v1.06h1.74V26.08Z" transform="translate(-18.11 -22.73)"/>
    <rect class="cls-1" x="53.57" width="3.99" height="1.7"/>
    <path class="cls-1" d="M78.85,26.08h1.74v1.06a2.57,2.57,0,0,1,2.22-1.25,2.51,2.51,0,0,1,2.33,1.32,2.82,2.82,0,0,1,2.47-1.32,2.62,2.62,0,0,1,2.7,2.84v4.8H88.48V29.15A1.4,1.4,0,0,0,87,27.58a1.45,1.45,0,0,0-1.46,1.61v4.34H83.66V29.15a1.4,1.4,0,0,0-1.45-1.57,1.42,1.42,0,0,0-1.53,1.59v4.36H78.85Z" transform="translate(-18.11 -22.73)"/>
    <path class="cls-1" d="M46,26a3.33,3.33,0,0,0-2.64,1.2V24.42H49V22.73H41.51v6.71c0,2.4,1.27,4.28,4.28,4.28a3.87,3.87,0,0,0,3.92-3.9A3.6,3.6,0,0,0,46,26Zm-.41,6a2.24,2.24,0,0,1,0-4.48,2.24,2.24,0,1,1,0,4.48Z" transform="translate(-18.11 -22.73)"/>
    <path class="cls-1" d="M95.2,22.73h8.7v10.8H102v-9H97.13v9H95.2Z" transform="translate(-18.11 -22.73)"/>
  </g>
</svg>
