<svg version="1.1" id="Layer_1" xmlns="http://www.w3.org/2000/svg" xmlns:xlink="http://www.w3.org/1999/xlink" width="797.9" height="125.4"
	 viewBox="0 0 797.9 125.4" xml:space="preserve">
<style type="text/css">
	.st0{fill:#000000;}
	.st1{fill:none;}
</style>
<title>logo_bright_park_02</title>
    <g>
        <path class="st0" d="M102.2,30.3v10.4c5.6-7.8,14.6-12.3,24.2-12.2c19.1,0,32.6,15,32.6,35.1c0,20.4-13.6,35.5-33,35.5
            c-8.9,0.2-17.4-3.9-23-10.9v37.2H86.4V30.3H102.2z M102.5,63.7C102.5,75,110.3,84,122,84s19.6-9.1,19.6-20.2
            c0-10.9-7.7-20.1-19.6-20.1S102.5,52.8,102.5,63.7z"/>
        <path class="st0" d="M169.1,64c0-20.4,13.6-35.5,32.8-35.5c9.5-0.2,18.5,4.3,24.1,12.1V30.3h15.6v67.1H226V86.6
            c-5.5,8-14.6,12.7-24.3,12.5C182.6,99.1,169.1,84.1,169.1,64z M225.6,63.9c0-11.1-7.8-20.3-19.6-20.3s-19.7,9.1-19.7,20.3
            S194.1,84,206,84S225.6,74.8,225.6,63.9z"/>
        <path class="st0" d="M667.5,30.3v10.4c5.6-7.8,14.6-12.3,24.2-12.2c19.1,0,32.6,15,32.6,35.1c0,20.4-13.6,35.5-33,35.5
            c-8.9,0.2-17.4-3.9-23-10.9v37.2h-16.6V30.3H667.5z M667.8,63.7c0,11.3,7.8,20.2,19.6,20.2c11.8,0,19.6-9.1,19.6-20.2
            c0-10.9-7.7-20.1-19.6-20.1S667.8,52.8,667.8,63.7L667.8,63.7z"/>
        <path class="st0" d="M566,64c0-20.4,13.6-35.5,32.8-35.5c9.5-0.2,18.5,4.3,24.1,12.1V30.3h15.6v67.1h-15.6V86.6
            c-5.5,8-14.6,12.7-24.4,12.5C579.5,99.1,566,84.1,566,64z M622.5,63.9c0-11.1-7.8-20.3-19.6-20.3s-19.7,9.1-19.7,20.3
            S591,84,602.9,84S622.5,74.8,622.5,63.9z"/>
        <path class="st0" d="M751.4,30.3V60L777,30.3h18.9l-28.2,32.1l30.1,34.9H778L751.4,66v31.3h-16.6V30.3H751.4z"/>
        <path class="st0" d="M300.7,30.3v37.6c0,11.5-7.8,16-15.1,16c-9.9,0-14.7-5.5-14.7-14.3V30.3h-16.7V72c0,17.6,12,26.7,26.2,26.7
            c9.2,0,15.7-4.1,21.1-10.9v9.6h15.7V30.3L300.7,30.3z"/>
        <rect x="267.8" class="st0" width="36" height="15.3"/>
        <path class="st0" d="M330.4,30.3h15.8v9.6c4.2-7.1,11.8-11.4,20-11.3c9.9,0,17.2,4.6,21,11.9c4.9-7.9,13.1-11.9,22.2-11.9
            c15.1,0,24.3,10.7,24.3,25.6v43.3h-16.5V57.9c0-7.7-3.6-14.2-13.7-14.2c-8.9,0-13.2,6.8-13.2,14.6v39h-16.5V57.9
            c0-7.7-4-14.2-13.1-14.2c-10,0-13.8,6.5-13.8,14.4v39.3h-16.5V30.3z"/>
        <path class="st0" d="M42.2,29.6c-10,0-18.4,4.1-23.8,10.7V15.3H69V0H1.9v60.5c0,21.6,11.4,38.5,38.5,38.5c19.4,0,35.3-15,35.3-35.1
            C75.8,43.5,61.9,29.6,42.2,29.6z M38.6,83.9c-12,0-19.8-9.1-19.8-20.1c0-11.3,7.8-20.3,19.8-20.3s20.3,9.1,20.3,20.3
            c0.2,10.9-8.6,20-19.5,20.1C39.1,83.9,38.9,83.9,38.6,83.9z"/>
        <path class="st0" d="M476.8,0h78.4v97.3H538V16.4h-43.8v80.9h-17.3V0z"/>
    </g>
</svg>
