<svg id="_лой_1" data-name="‘лой_1" xmlns="http://www.w3.org/2000/svg" width="100mm" height="26.15mm" viewBox="0 0 283.46 74.12">
  <defs>
    <style>
      .cls-1 {
        fill: #5b6770;
      }
    </style>
  </defs>
  <title>logo_lada</title>
  <polygon class="cls-1" points="19.21 60.39 19.21 0 0 0 0 74.11 49.41 74.11 49.41 60.39 19.21 60.39"/>
  <path class="cls-1" d="M367,249.35l-27,74.11h19l5-13.72h33l5,13.72h19l-27-74.11ZM369,296l11.51-31.63L392,296Z" transform="translate(-287.98 -249.34)"/>
  <path class="cls-1" d="M463.42,249.34H424.34v74.11h39.08a32.93,32.93,0,0,0,30.95-21.67h0a45,45,0,0,0,0-30.77h0A32.93,32.93,0,0,0,463.42,249.34Zm-5.49,60.39H443.56V263.06h14.37A19.22,19.22,0,0,1,476,275.71h0a31.29,31.29,0,0,1,0,21.38h0A19.21,19.21,0,0,1,457.93,309.73Z" transform="translate(-287.98 -249.34)"/>
  <path class="cls-1" d="M544.47,249.34h-27l-27,74.11h19l5-13.72h33l5,13.72h19Zm-25,46.67L531,264.38,542.46,296Z" transform="translate(-287.98 -249.34)"/>
</svg>
