<svg version="1.1" id="Слой_1" xmlns="http://www.w3.org/2000/svg" x="0" y="0" viewBox="0 0 130.5 92" xml:space="preserve"><style>.st2{fill:#e22227}</style><g id="Слой_x0020_1"><g id="_1565611227792"><path d="M45 89c3 4 9 4 12 0l44-43c1-2 2-3 3-5 4 1 9 2 12 2 10 0 13-4 14-7 1-2 1-7-5-14-4-4-10-8-17-10-1-1-2-1-4-2 0-5-4-9-9-10H69c-4 0-7 1-10 4L16 47c-4 4-4 10 0 13l29 29zm33-73c3-3 8-3 11 0 2 1 2 4 2 6 3 2 6 4 10 5 1 1 2 1 4 2V18v1c6 2 11 5 14 9 4 3 4 5 4 6-1 1-10 3-23-2-4-2-8-4-11-6-3 3-8 3-11 0s-3-7 0-10z" fill-rule="evenodd" clip-rule="evenodd" fill="#e22227"/><circle cx="32" cy="42" r="30" fill-rule="evenodd" clip-rule="evenodd" fill="#fefefe"/><path class="st2" d="M32 10c9 0 17 4 23 10s9 14 9 22c0 9-3 17-9 23s-14 9-23 9c-8 0-16-3-22-9S0 51 0 42c0-8 4-16 10-22s14-10 22-10zm20 13c-5-5-12-8-20-8-7 0-14 3-19 8S5 35 5 42c0 8 3 15 8 20s12 8 19 8c8 0 15-3 20-8s8-12 8-20c0-7-3-14-8-19z"/><path class="st2" d="M53 32L27 57 12 43v-1l4-3c0-1 0-1 0 0l11 10 21-21 1-1v1l4 3v1z"/></g></g></svg>