<?xml version="1.0" encoding="utf-8"?>
<!-- Generator: Adobe Illustrator 23.1.0, SVG Export Plug-In . SVG Version: 6.00 Build 0)  -->
<svg version="1.1" id="Слой_1" xmlns="http://www.w3.org/2000/svg" xmlns:xlink="http://www.w3.org/1999/xlink" x="0px" y="0px"
	 viewBox="0 0 138 138" style="enable-background:new 0 0 138 138;" xml:space="preserve">
<style type="text/css">
	.st0{fill-rule:evenodd;clip-rule:evenodd;fill:#FF8351;}
	.st1{fill-rule:evenodd;clip-rule:evenodd;fill:#FEFEFE;}
	.st2{fill:#FEFEFE;}
</style>
<g id="Слой_x0020_1">
	<circle class="st0" cx="69" cy="69" r="69"/>
	<g id="_1806385519664">
		<path class="st1" d="M54,103c3,3,7,3,10,0l34-34c1-1,1-2,2-3c3,1,7,1,9,1c8,0,10-3,11-5c1-1,1-5-4-10c0-1,0-1,0-1c-3-3-8-6-13-8
			c-1,0-2,0-3-1l0,0c0-4-3-7-7-7l-20-1c-3,0-6,1-7,3L32,71c-3,3-3,7,0,10L54,103z M80,46c2-2,6-2,8,0s2,4,2,5c2,2,5,3,8,4
			c1,1,2,1,2,2v-9c1,1,1,1,1,1c4,1,8,4,11,7l0,0c2,2,3,4,2,4c0,2-7,3-17-1c-3-2-6-3-8-5c-1,0-1,0-1,0c-2,3-6,3-8,0
			C78,52,78,49,80,46z"/>
	</g>
	<circle class="st0" cx="45" cy="67" r="23"/>
	<path class="st2" d="M45,42c7,0,13,3,17,8c5,4,7,10,7,17s-2,13-7,17c-4,5-10,8-17,8s-13-3-18-8c-4-4-7-10-7-17s3-13,7-17
		C32,45,38,42,45,42z M60,52c-4-4-9-6-15-6s-11,2-15,6s-7,9-7,15s3,11,7,15s9,6,15,6s11-2,15-6s6-9,6-15S64,56,60,52z"/>
	<path class="st2" d="M60,59L41,78c0,1-1,1-1,0L29,67l0,0l0,0l3-3l0,0l9,8l16-16c0-1,0-1,0-1c1,0,1,0,1,1l2,2C61,58,61,59,60,59z"/>
</g>
</svg>
