<?xml version="1.0" encoding="utf-8"?>
<!-- Generator: Adobe Illustrator 23.1.0, SVG Export Plug-In . SVG Version: 6.00 Build 0)  -->
<svg version="1.1" id="Слой_1" xmlns="http://www.w3.org/2000/svg" xmlns:xlink="http://www.w3.org/1999/xlink" x="0px" y="0px"
	 viewBox="0 0 138 138" style="enable-background:new 0 0 138 138;" xml:space="preserve">
<style type="text/css">
	.st0{fill-rule:evenodd;clip-rule:evenodd;fill:#FF8351;}
	.st1{fill-rule:evenodd;clip-rule:evenodd;fill:#FEFEFE;}
	.st2{fill:#FEFEFE;}
</style>
<g id="Слой_x0020_1">
	<circle class="st0" cx="69" cy="69" r="69"/>
	<g id="_1842119356576">
		<g>
			<path class="st1" d="M84,97H55l-3,6v1h6l0,0v-1v-2v-1c1,0,1,1,1,1v2v1l0,0h9l0,0v-1v-2l1-1c1,0,1,1,1,1v2v1l0,0h9l0,0v-1v-2l1-1
				c1,0,1,1,1,1v2v1l0,0h6l-1-1L84,97z"/>
			<path class="st1" d="M108,73c0-1-1-1-1-1c-3,0-5,0-7,0c-1,0-2,0-2,1c0,0,0,1,0,2c-3-6-7-13-7-13c0-1-1-2-2-2c-7-1-13-2-20-2
				c-6,0-13,1-19,2c-1,0-2,1-2,2c0,0-4,7-7,13c0-1,0-2,0-2c-1-1-1-1-2-1c-2,0-5,0-7,0c-1,0-1,0-1,1c-1,2-1,3,0,5c0,1,0,1,1,1
				c2,0,5,0,7,0l0,0c-1,1-2,2-2,4v15v1v8c0,1,0,2,1,2h9c1,0,2-1,2-2v-4h1l4-8l0,0h30c1,0,1,0,1,0l3,8h2v4c0,1,1,2,2,2h8c1,0,2-1,2-2
				v-8v-1V83c0-2-1-3-2-4l0,0c2,0,4,0,7,0c0,0,1,0,1-1C109,76,109,75,108,73z M52,64c0,0,4-1,17-1c14,0,18,1,18,1l6,15H45L52,64z
				 M44,90v-5h11l3,5H44z M95,90H81l3-5h11V90z"/>
		</g>
	</g>
	<g id="_1806181911536">
		<g>
			<path class="st1" d="M56,21v31h26V21H56z M81,51H57V22h24V51z"/>
			<rect x="60" y="26" class="st1" width="8.8" height="1.1"/>
			<rect x="60" y="31" class="st1" width="18" height="1.1"/>
			<rect x="60" y="36" class="st1" width="18" height="1.1"/>
			<rect x="60" y="41" class="st1" width="18" height="1.1"/>
			<rect x="60" y="46" class="st1" width="18" height="1.1"/>
		</g>
	</g>
	<path class="st2" d="M78,25l-4,4l0,0l-2-2l0,0l0,0v-1l0,0l2,2l3-4l0,0l0,0L78,25L78,25z"/>
</g>
</svg>
