<svg version="1.1" id="Слой_1" xmlns="http://www.w3.org/2000/svg" x="0" y="0" viewBox="0 0 91.8 102" xml:space="preserve"><style>.st0{fill-rule:evenodd;clip-rule:evenodd;fill:#e22227}</style><g id="Слой_x0020_1"><g id="_1529846563152"><path class="st0" d="M62.8 88h-33l-3 7-1 1h7v-3s0-1 1-1l1 1v3h10v-3l1-1c1 0 2 1 2 1v3h-1 11v-3s0-1 1-1 1 1 1 1v3h7l-1-1-3-7z"/><path class="st0" d="M91.8 60c-1-1-1-1-2-1h-8c-1 0-2 0-2 1s-1 2-1 2c-3-7-7-15-7-15-1-1-2-2-3-2-7-1-15-2-23-2-7 0-15 1-22 2-1 0-2 1-3 2 0 0-4 8-8 15v-2c0-1-1-1-2-1h-8c-1 0-2 0-2 1-1 2-1 4 0 6 0 1 1 1 2 1h8v1c-2 0-3 2-3 4v28c0 1 1 2 2 2h11c1 0 2-1 2-2v-5h1l4-9h37l3 9h2v5c0 1 1 2 2 2h11c1 0 2-1 2-2V72c0-2-2-4-3-4v-1h8c1 0 1 0 2-1v-6zm-66-10s5-2 20-2c16 0 21 2 21 2l7 17h-55l7-17zm-9 30v-5h12l4 5h-16zm59 0h-16l3-5h13v5zM30.8 0v36h31V0h-31zm29 35h-28V1h28v34z"/><path class="st0" d="M35.8 6H46v1.3H35.8zM35.8 12h20.9v1.3H35.8zM35.8 17h20.9v1.3H35.8zM35.8 23h20.9v1.3H35.8zM35.8 29h20.9v1.3H35.8z"/><path d="M55.8 5l-4 4-3-2V6h1l2 2 3-4 1 1z" fill="#e22227"/></g></g></svg>