<?xml version="1.0" encoding="utf-8"?>
<!-- Generator: Adobe Illustrator 23.1.0, SVG Export Plug-In . SVG Version: 6.00 Build 0)  -->
<svg version="1.1" id="Слой_1" xmlns="http://www.w3.org/2000/svg" xmlns:xlink="http://www.w3.org/1999/xlink" x="0px" y="0px"
	 viewBox="0 0 138 138" style="enable-background:new 0 0 138 138;" xml:space="preserve">
<style type="text/css">
	.st0{fill-rule:evenodd;clip-rule:evenodd;fill:#FF8351;}
	.st1{fill-rule:evenodd;clip-rule:evenodd;fill:#FEFEFE;}
</style>
<g id="Слой_x0020_1">
	<circle class="st0" cx="69" cy="69" r="69"/>
	<g id="_1842119575648">
		<g>
			<path class="st1" d="M84,65c2-1,4-1,6-1l21-22L99,30L77,52c1,2,0,4-1,5L84,65z"/>
			<polygon class="st1" points="46,92 45,91 41,94 34,105 36,107 47,100 50,96 49,95 63,81 60,78 			"/>
			<path class="st1" d="M65,53c2-5,0-12-4-16c-5-5-11-6-17-5l10,10l-3,9l-9,3L32,44c-1,6,0,12,5,17c4,5,11,6,17,4l0,0l40,40
				c1,1,3,2,5,2s4-1,6-2c3-3,3-9,0-12L65,53z M100,103c-2,0-3-1-3-3c0-1,1-3,3-3s3,2,3,3C103,102,102,103,100,103z"/>
		</g>
	</g>
</g>
</svg>
