<svg version="1.1" id="Слой_1" xmlns="http://www.w3.org/2000/svg" x="0" y="0" viewBox="0 0 99.8 97" xml:space="preserve"><style>.st0{fill-rule:evenodd;clip-rule:evenodd;fill:#e22227}</style><g id="Слой_x0020_1"><g id="_1529797309216"><path class="st0" d="M65.8 44c2-1 5-1 7-1l27-27-15-16-27 28c0 2-1 4-2 7l10 9zM18.8 78l-1-1-6 4-8 14 2 2 14-9 4-5-1-1 17-17-4-5z"/><path class="st0" d="M41.8 30c2-8 1-16-5-21-6-6-14-8-21-6l12 12-3 12-12 3-12-12c-2 7 0 15 6 21s14 8 21 5h1l49 50c2 2 5 3 7 3 3 0 5-1 7-3 4-4 4-11 0-14l-50-50zm44 62c-2 0-4-2-4-4s2-4 4-4 4 2 4 4-2 4-4 4z"/></g></g></svg>