<svg version="1.1" id="Слой_1" xmlns="http://www.w3.org/2000/svg" x="0" y="0" viewBox="0 0 80.8 118" xml:space="preserve"><style>.st1{fill-rule:evenodd;clip-rule:evenodd;fill:#e22227}</style><g id="Слой_x0020_1"><path d="M72 97l-21 21h-1l-12-12 3-3c0-1 0-1 1 0l8 8 18-17v-1c1 0 1 1 1 1l3 2v1z" fill="#fefefe"/><g id="_1529797330720"><path class="st1" d="M80 49l-5-7v-2l5-7c1-1 1-2 0-2l-8-4c-1-1-1-1-1-2l2-9s-1-1-2-1l-9-1s-1 0-1-1l-2-8c-1-1-1-1-2-1l-8 3c-1 1-2 1-2 0l-6-7h-2l-6 7c0 1-1 1-2 1l-8-4c-1 0-1 0-2 1l-2 9-1 1H9c-1 0-2 1-2 2l2 9s0 1-1 1l-7 4c-1 1-1 2-1 2l5 8c1 0 1 1 0 1l-5 8s0 1 1 2l8 4v1l-1 9c0 1 0 2 1 2h9c1 0 1 1 1 1l3 9c0 1 1 1 2 1l8-4h2l6 7c0 1 1 1 2 0l6-7h1l8 3c1 1 2 0 2 0l3-9c0-1 0-1 1-1l9-1c1 0 1 0 1-1l-2-9c0-1 1-1 1-2l8-4c1 0 1-1 0-2zM40 66c-13 0-24-11-24-25 0-13 11-24 24-24 14 0 25 11 25 24 0 14-11 25-25 25zM62 82c-1 1-3 2-5 2 0 0-1 0-2-1l-5-1-5 4 7 22c0 1 1 1 2 0l5-6c0-1 0-1 1-1l8 3c1 0 1-1 1-1l-7-21zM31 82l-6 1c0 1-1 1-2 1-2 0-3-1-5-2l-6 21c-1 0 0 1 1 1l8-3s1 0 1 1l5 6c1 1 2 1 2 0l7-22-5-4z"/><path d="M57 32L37 53h-1L24 41l3-3h1l8 8 17-17h1l3 3z" fill="#e22227"/></g></g></svg>