<?xml version="1.0" encoding="utf-8"?>
<!-- Generator: Adobe Illustrator 23.1.0, SVG Export Plug-In . SVG Version: 6.00 Build 0)  -->
<svg version="1.1" id="Слой_1" xmlns="http://www.w3.org/2000/svg" xmlns:xlink="http://www.w3.org/1999/xlink" x="0px" y="0px"
	 viewBox="0 0 138 138" style="enable-background:new 0 0 138 138;" xml:space="preserve">
<style type="text/css">
	.st0{fill-rule:evenodd;clip-rule:evenodd;fill:#FF8351;}
	.st1{fill-rule:evenodd;clip-rule:evenodd;fill:#FEFEFE;}
	.st2{fill:#FEFEFE;}
</style>
<g id="Слой_x0020_1">
	<circle class="st0" cx="69" cy="69" r="69"/>
	<path class="st1" d="M102,65l-4-6c-1,0-1-1,0-1l4-6c0-1,0-2,0-2l-7-4c-1,0-1,0-1-1l2-7c0-1-1-2-2-2h-7c0,0-1,0-1-1l-2-7
		c0-1-1-1-2-1l-7,3c0,1-1,0-1,0l-5-6c0,0-1,0-2,0l-5,6c0,1,0,1-1,0l-7-2c0-1-1,0-1,0l-2,8h-1l-8,1c0,0-1,0-1,1l2,8l-1,1l-7,3
		c0,1,0,1,0,2l4,6c1,0,1,1,0,1l-4,7c0,0,0,1,1,1l6,4c1,0,1,0,1,1l-2,7c0,1,1,2,2,2h7c1,0,1,0,1,1l2,7c0,1,1,1,2,1l7-3h1l5,6
		c0,0,1,0,2,0l5-6c0,0,0-1,1,0l7,3l1-1l2-7c0-1,1-1,1-1l8-1c1,0,1,0,1-1l-1-7c-1-1,0-1,0-2l7-3C102,66,102,66,102,65z M69,79
		c-12,0-21-9-21-20c0-12,9-21,21-21c11,0,20,9,20,21C89,70,80,79,69,79z"/>
	<path class="st1" d="M87,92c-1,1-3,2-4,2s-1,0-2,0l-5-2l-3,4c-1,0-1,0-1,0l6,18c0,1,1,1,2,1l4-6c0,0,0,0,1,0l7,2l1-1L87,92z"/>
	<path class="st1" d="M61,92l-5,2c0,0-1,0-2,0s-3-1-4-2l-5,18c-1,0,0,1,1,1l6-2c1,0,1,0,1,0l5,6c0,0,1,0,1-1l6-18l0,0L61,92z"/>
	<path class="st2" d="M82,51L65,68l0,0L55,58l0,0l0,0l3-2c0-1,0-1,0,0l7,7l14-15h1l0,0L82,51L82,51z"/>
</g>
</svg>
