<?xml version="1.0" encoding="utf-8"?>
<!-- Generator: Adobe Illustrator 22.0.1, SVG Export Plug-In . SVG Version: 6.00 Build 0)  -->
<svg version="1.1" id="_x31_" xmlns="http://www.w3.org/2000/svg" xmlns:xlink="http://www.w3.org/1999/xlink" x="0px" y="0px"
	 viewBox="0 0 19.3 19.4" style="enable-background:new 0 0 19.3 19.4;" xml:space="preserve">
<style type="text/css">
	.st0{fill-rule:evenodd;clip-rule:evenodd;fill:#ff8250;}
</style>
<path class="st0" d="M0.5,8V0h8v8c0,3-0.5,5.3-1.6,7.2c-1,1.8-2.7,3.2-5,4.2l-1.9-3c1.5-0.7,2.6-1.6,3.3-2.9C4,12.2,4.4,10.4,4.5,8
	H0.5L0.5,8z M11.3,8V0h8v8c0,3-0.5,5.3-1.6,7.2c-1,1.8-2.7,3.2-5,4.2l-1.9-3c1.5-0.7,2.6-1.6,3.3-2.9c0.7-1.3,1.1-3.1,1.2-5.5H11.3z
	"/>
</svg>
