<?xml version="1.0" encoding="utf-8"?>
<!-- Generator: Adobe Illustrator 22.0.1, SVG Export Plug-In . SVG Version: 6.00 Build 0)  -->
<svg version="1.1" id="_x31_" xmlns="http://www.w3.org/2000/svg" xmlns:xlink="http://www.w3.org/1999/xlink" x="0px" y="0px"
	 viewBox="-0.2 0 8.1 7.4" style="enable-background:new 0 0 7.7 7.4;" xml:space="preserve">
<style type="text/css">
	.st0{fill-rule:evenodd;clip-rule:evenodd;fill:none;stroke:#faef5f;stroke-width:0.5;stroke-miterlimit:22.9256;}
</style>
<path class="st0" d="M7.6,2.8C7.4,2.5,6.8,2.4,6.1,2.3c-0.4,0-0.8-0.1-0.9-0.2C5.1,2,4.9,1.6,4.8,1.3C4.5,0.7,4.2,0.1,3.9,0.1l0,0
	c-0.4,0-0.6,0.6-0.9,1.2C2.8,1.6,2.6,2,2.5,2.1C2.3,2.2,1.9,2.2,1.5,2.3C0.9,2.4,0.2,2.4,0.1,2.8C0,3.1,0.5,3.6,1,4
	c0.3,0.3,0.6,0.5,0.6,0.7c0,0.1,0,0.6-0.1,0.9C1.3,6.3,1.2,6.9,1.5,7.2c0.1,0.1,0.2,0.1,0.3,0.1C2.1,7.2,2.5,7,3,6.8
	c0.3-0.2,0.7-0.4,0.8-0.4c0.2,0,0.5,0.2,0.8,0.4C5.1,7,5.6,7.3,5.9,7.3c0.1,0,0.2,0,0.2-0.1C6.4,7,6.3,6.3,6.2,5.7
	C6.1,5.3,6,4.9,6.1,4.8c0-0.1,0.4-0.4,0.6-0.7C7.2,3.6,7.7,3.2,7.6,2.8z"/>
</svg>
