<?xml version="1.0" encoding="utf-8"?>
<!-- Generator: Adobe Illustrator 23.1.0, SVG Export Plug-In . SVG Version: 6.00 Build 0)  -->
<svg version="1.1" id="Слой_1" xmlns="http://www.w3.org/2000/svg" xmlns:xlink="http://www.w3.org/1999/xlink" x="0px" y="0px"
	 viewBox="0 0 34 34" style="enable-background:new 0 0 34 34;" xml:space="preserve">
<style type="text/css">
	.st0{fill:#FF8351;}
	.st1{fill:#FEFEFE;}
</style>
<g id="Слой_x0020_1">
	<path class="st0" d="M17,1.4C8.4,1.4,1.4,8.4,1.4,17c0,8.6,7,15.6,15.6,15.6s15.6-7,15.6-15.6C32.6,8.4,25.6,1.4,17,1.4z"/>
	<path class="st1" d="M21.6,9.1C21.6,9.1,21.6,9.1,21.6,9.1C21.5,9.1,21.5,9.1,21.6,9.1c-1.4-0.8-3-1.3-4.6-1.3s-3.2,0.4-4.5,1.2
		c0,0,0,0,0,0c0,0,0,0,0,0c-2.7,1.6-4.5,4.5-4.5,7.9c0,3.4,1.8,6.3,4.5,7.9c0,0,0,0,0,0c0,0,0,0,0,0c1.3,0.8,2.9,1.2,4.5,1.2
		s3.2-0.4,4.5-1.2c0,0,0,0,0,0c0,0,0,0,0,0c2.7-1.6,4.5-4.5,4.5-7.9C26.1,13.6,24.3,10.7,21.6,9.1z M17,9.4c1.1,0,2.1,0.2,3.1,0.7
		l-2,3.5c-0.3-0.1-0.7-0.2-1-0.2c-0.4,0-0.7,0.1-1,0.2l-2-3.5C14.9,9.7,15.9,9.4,17,9.4z M19,17c0,1.1-0.9,2-2,2s-2-0.9-2-2
		c0-1.1,0.9-2,2-2S19,15.9,19,17z M12.6,10.9l2,3.5c-0.5,0.5-0.9,1.1-1,1.8H9.5C9.7,14,10.9,12.1,12.6,10.9z M9.5,17.8h4.1
		c0.2,0.7,0.5,1.3,1,1.8l-2,3.5C10.9,21.9,9.7,20,9.5,17.8z M17,24.6c-1.1,0-2.1-0.2-3.1-0.7l2-3.5c0.3,0.1,0.7,0.2,1,0.2
		c0.4,0,0.7-0.1,1-0.2l2,3.5C19.1,24.3,18.1,24.6,17,24.6z M21.4,23.1l-2-3.5c0.5-0.5,0.9-1.1,1-1.8h4.1
		C24.3,20,23.1,21.9,21.4,23.1z M20.4,16.2c-0.2-0.7-0.5-1.3-1-1.8l2-3.5c1.7,1.2,2.9,3.2,3.1,5.3H20.4z M28.7,15.3
		c-0.1,0-0.1,0-0.2,0c-0.4,0-0.7-0.3-0.8-0.6c-0.9-4.3-4.2-7.6-8.5-8.5c-0.4-0.1-0.7-0.5-0.6-0.9c0.1-0.4,0.5-0.7,0.9-0.6
		c4.9,1,8.7,4.8,9.7,9.7C29.4,14.8,29.1,15.2,28.7,15.3z M15.3,28.7c-0.1,0.4-0.4,0.6-0.8,0.6c-0.1,0-0.1,0-0.2,0
		c-4.9-1-8.7-4.8-9.7-9.7c-0.1-0.4,0.2-0.8,0.6-0.9c0.4-0.1,0.8,0.2,0.9,0.6c0.9,4.3,4.2,7.6,8.5,8.5C15.1,27.8,15.4,28.3,15.3,28.7
		z M17,16.2L17,16.2c0.4,0,0.8,0.3,0.8,0.8s-0.3,0.8-0.8,0.8c-0.4,0-0.8-0.3-0.8-0.8C16.2,16.6,16.6,16.2,17,16.2z"/>
</g>
</svg>
