<?xml version="1.0" encoding="utf-8"?>
<!-- Generator: Adobe Illustrator 23.1.0, SVG Export Plug-In . SVG Version: 6.00 Build 0)  -->
<svg version="1.1" id="Слой_1" xmlns="http://www.w3.org/2000/svg" xmlns:xlink="http://www.w3.org/1999/xlink" x="0px" y="0px"
	 viewBox="0 0 34 34" style="enable-background:new 0 0 34 34;" xml:space="preserve">
<style type="text/css">
	.st0{fill:#FF8351;}
	.st1{fill:#FEFEFE;}
</style>
<g id="Слой_x0020_1">
	<path class="st0" d="M17,1.4C8.4,1.4,1.4,8.4,1.4,17s7,15.6,15.6,15.6c8.6,0,15.6-7,15.6-15.6S25.6,1.4,17,1.4z"/>
	<path class="st1" d="M12,23.7c0.3,0.3,0.8,0.2,1.1-0.2l9.1-12.1c0.3-0.3,0.2-0.8-0.2-1.1c-0.3-0.3-0.8-0.2-1.1,0.2l-9.1,12.1
		C11.6,22.9,11.7,23.4,12,23.7z"/>
	<path class="st1" d="M13.2,16.2c1.7,0,3-1.4,3-3c0-1.7-1.4-3-3-3c-1.7,0-3,1.4-3,3C10.2,14.9,11.5,16.2,13.2,16.2z M13.2,11.7
		c0.8,0,1.5,0.7,1.5,1.5c0,0.8-0.7,1.5-1.5,1.5c-0.8,0-1.5-0.7-1.5-1.5C11.7,12.4,12.4,11.7,13.2,11.7z"/>
	<path class="st1" d="M17.8,20.8c0,1.7,1.4,3,3,3s3-1.4,3-3c0-1.7-1.4-3-3-3S17.8,19.1,17.8,20.8z M22.3,20.8c0,0.8-0.7,1.5-1.5,1.5
		c-0.8,0-1.5-0.7-1.5-1.5c0-0.8,0.7-1.5,1.5-1.5C21.6,19.3,22.3,20,22.3,20.8z"/>
</g>
</svg>
