<?xml version="1.0" encoding="utf-8"?>
<!-- Generator: Adobe Illustrator 23.1.0, SVG Export Plug-In . SVG Version: 6.00 Build 0)  -->
<svg version="1.1" id="Слой_1" xmlns="http://www.w3.org/2000/svg" xmlns:xlink="http://www.w3.org/1999/xlink" x="0px" y="0px"
	 viewBox="0 0 34 34" style="enable-background:new 0 0 34 34;" xml:space="preserve">
<style type="text/css">
	.st0{fill:#FF8351;}
	.st1{fill:#FF8351;stroke:#FEFEFE;stroke-width:0.748;stroke-miterlimit:10;}
</style>
<g id="Слой_x0020_1">
	<path class="st0" d="M17,1.4C8.4,1.4,1.4,8.4,1.4,17s7,15.6,15.6,15.6c8.6,0,15.6-7,15.6-15.6S25.6,1.4,17,1.4z"/>
	<path class="st1" d="M21.4,12.2c0.3-0.3,0.5-0.8,0.5-1.2c0-1-0.8-1.8-1.8-1.8c-0.7,0-2.4,1.1-3.1,2.1c-0.7-1-2.4-2.1-3.1-2.1
		c-1,0-1.8,0.8-1.8,1.8c0,0.5,0.2,0.9,0.5,1.2H9.2v4.3h0.9v8.3h13.8v-8.3h0.9v-4.3C24.8,12.2,21.4,12.2,21.4,12.2z M20.1,9.8
		c0.6,0,1.1,0.5,1.1,1.2c0,0.6-0.4,1-0.9,1.1h-2.7c-0.2-0.1-0.2-0.1-0.2-0.1C17.4,11.4,19.4,9.8,20.1,9.8z M13.9,9.8
		c0.7,0,2.7,1.6,2.7,2.2c0,0.1-0.1,0.1-0.2,0.1h-2.7c-0.5-0.1-0.9-0.6-0.9-1.1C12.8,10.4,13.3,9.8,13.9,9.8z M15,24.2h-4.2v-7.7H15
		C15,16.5,15,24.2,15,24.2z M15,15.9H9.8v-3H15L15,15.9C15,15.9,15,15.9,15,15.9z M18.3,24.2h-2.7V12.9h2.7V24.2z M23.2,24.2H19
		v-7.7h4.2V24.2z M24.2,15.9H19v-3h5.2L24.2,15.9L24.2,15.9z"/>
</g>
</svg>
