<?xml version="1.0" encoding="utf-8"?>
<!-- Generator: Adobe Illustrator 23.1.0, SVG Export Plug-In . SVG Version: 6.00 Build 0)  -->
<svg version="1.1" id="Слой_1" xmlns="http://www.w3.org/2000/svg" xmlns:xlink="http://www.w3.org/1999/xlink" x="0px" y="0px"
	 viewBox="0 0 34 34" style="enable-background:new 0 0 34 34;" xml:space="preserve">
<style type="text/css">
	.st0{fill:#FF8351;}
	.st1{fill:#FEFEFE;}
</style>
<path class="st0" d="M17,1.4C8.4,1.4,1.4,8.4,1.4,17s7,15.6,15.6,15.6c8.6,0,15.6-7,15.6-15.6S25.6,1.4,17,1.4z"/>
<g id="_598717778896">
	<path class="st1" d="M22.6,18.8C22.6,18.8,22.6,18.8,22.6,18.8C22.6,18.8,22.6,18.8,22.6,18.8z"/>
	<path class="st1" d="M22.6,15.1C22.6,15.1,22.6,15.1,22.6,15.1C22.6,15.1,22.6,15.1,22.6,15.1C22.6,15.1,22.6,15.1,22.6,15.1z"/>
	<path class="st1" d="M22.7,9.8C22.7,9.7,22.7,9.8,22.7,9.8z"/>
	<path class="st1" d="M18.5,21.9C18.5,21.9,18.5,21.9,18.5,21.9z"/>
	<path class="st1" d="M24.9,8.4c0-0.1-0.1-0.2-0.1-0.3c-0.1,0.1-0.3,0.2-0.4,0.2c-0.1,0.1-0.2,0.1-0.2,0.2L24,8.6
		c0,0-0.1-0.1-0.1-0.1L24,8.4c0.1-0.1,0.2-0.1,0.3-0.2c0.1-0.1,0.3-0.2,0.5-0.2c0-0.1-0.1-0.1-0.1-0.2c0,0,0-0.1-0.1-0.1
		c0,0,0,0,0,0h0c0,0,0,0,0,0c-0.3,0.1-0.5,0.2-0.8,0.3c-0.6,0.3-1.2,0.7-1.7,1.1c-0.5,0.5-1,1-1.4,1.6c-0.3,0.6-0.5,1.3-0.5,2.1
		c0,0.4,0,0.7,0.1,1.1c0.1,0.4,0.2,0.7,0.3,1c0.1,0.2,0.2,0.5,0.3,0.7c0.1,0.2,0.1,0.3,0.1,0.5c0,0.2,0,0.3,0,0.5
		c0,0.2-0.1,0.3-0.1,0.4c-0.1,0.1-0.2,0.3-0.3,0.4c-0.1,0.1-0.3,0.2-0.4,0.3c-0.6,0.4-1.3,0.7-2,0.9c0,0,0,0-0.1,0l-1.4,2.9
		c0,0,0,0,0.1,0c0.3-0.1,0.7-0.2,1-0.4c0.1-0.1,0.3-0.1,0.4-0.2c0,0,0,0,0,0s0,0,0,0.1c0.1,0.2,0.1,0.3,0.2,0.5
		c0,0.1,0.1,0.1,0.1,0.2c0,0,0,0,0,0c0,0-0.1,0-0.1,0.1c0,0,0,0,0,0c0,0,0,0,0,0c-0.6,0.3-1.1,0.5-1.7,0.7c-0.2,0.1-0.4,0.1-0.6,0.2
		l-1.7,3.4c0.3-0.1,0.5-0.2,0.8-0.3c0.7-0.3,1.3-0.5,2-0.8c1.3-0.6,2.6-1.3,3.8-2.1c1.1-0.8,2.2-1.8,2.9-3c0.4-0.6,0.6-1.3,0.7-2
		c0.1-0.7,0-1.4-0.2-2.1c-0.1-0.5-0.4-0.9-0.6-1.3c-0.1-0.2-0.2-0.3-0.4-0.5c-0.1-0.1-0.2-0.2-0.2-0.3c-0.1-0.1-0.2-0.3-0.3-0.4
		c-0.2-0.3-0.3-0.5-0.3-0.8c-0.1-0.4,0-0.7,0-1.1c0.2-0.7,0.6-1.3,1.1-1.8c0.3-0.3,0.6-0.6,1-0.9C24.8,8.6,24.8,8.6,24.9,8.4
		C25,8.5,24.9,8.5,24.9,8.4z M22.6,18.8C22.6,18.8,22.6,18.8,22.6,18.8C22.6,18.8,22.6,18.8,22.6,18.8c-0.3,0.5-0.7,0.9-1.1,1.3
		c-0.4,0.3-0.8,0.6-1.3,0.9c-0.1-0.2-0.3-0.5-0.4-0.7c0.6-0.3,1.1-0.7,1.6-1.1c0.2-0.2,0.4-0.5,0.6-0.7l0-0.1
		C22.1,18.4,22.6,18.8,22.6,18.8z M22.6,15.1C22.6,15.1,22.6,15.1,22.6,15.1C22.6,15.1,22.6,15.1,22.6,15.1c0.3,0.6,0.5,1.2,0.5,1.9
		c-0.2,0-0.4,0-0.6,0c0-0.5-0.1-1-0.3-1.4c-0.1-0.3-0.3-0.5-0.4-0.7c-0.1-0.2-0.2-0.4-0.3-0.6c0.1,0,0.2-0.1,0.2-0.1
		c0,0,0.2-0.1,0.2-0.1l0,0c0.1,0.2,0.2,0.3,0.3,0.5C22.4,14.7,22.5,14.9,22.6,15.1z M22.7,9.8c-0.3,0.4-0.6,0.8-0.8,1.3
		c-0.2,0.4-0.3,0.9-0.3,1.4c-0.1,0-0.3,0-0.4,0c0-0.6,0.2-1.3,0.6-1.8c0.2-0.3,0.4-0.5,0.6-0.8c0.1-0.1,0.1-0.1,0.2-0.2
		c0,0,0.1-0.1,0.1-0.1S22.7,9.7,22.7,9.8C22.7,9.7,22.7,9.7,22.7,9.8C22.7,9.7,22.7,9.8,22.7,9.8z"/>
	<path class="st1" d="M18.5,15.5c0-2.6-2.1-4.7-4.7-4.7s-4.7,2.1-4.7,4.7c0,0.8,0.2,1.5,0.5,2.1l4.2,8.7l4.2-8.7
		C18.3,17,18.5,16.2,18.5,15.5z M13.8,18.1c-1.4,0-2.6-1.2-2.6-2.6c0-1.4,1.2-2.6,2.6-2.6c1.4,0,2.6,1.2,2.6,2.6
		C16.4,16.9,15.2,18.1,13.8,18.1z"/>
</g>
</svg>
