<?xml version="1.0" encoding="utf-8"?>
<!-- Generator: Adobe Illustrator 23.1.0, SVG Export Plug-In . SVG Version: 6.00 Build 0)  -->
<svg version="1.1" id="menu" xmlns="http://www.w3.org/2000/svg" xmlns:xlink="http://www.w3.org/1999/xlink" x="0px" y="0px"
     viewBox="0 0 584 508" style="enable-background:new 0 0 584 508;" xml:space="preserve">
    <path id="_x33_" d="M33.4,98.8h517.2c9.5,0,17.2-7.7,17.2-17.2c0-9.6-7.7-17.3-17.2-17.3H33.4c-9.5,0-17.2,7.7-17.2,17.3
        C16.2,91.1,23.9,98.8,33.4,98.8z"/>
    <path id="_x32_" d="M550.6,236.8H33.4c-9.5,0-17.2,7.7-17.2,17.3c0,9.5,7.7,17.2,17.2,17.2h517.2c9.5,0,17.2-7.7,17.2-17.2
        C567.8,244.5,560.1,236.8,550.6,236.8z"/>
    <path id="_x31_" d="M550.6,409.2H33.4c-9.5,0-17.2,7.7-17.2,17.3c0,9.5,7.7,17.2,17.2,17.2h517.2c9.5,0,17.2-7.7,17.2-17.2
        C567.8,416.9,560.1,409.2,550.6,409.2z"/>
</svg>
