<?xml version="1.0" encoding="UTF-8"?>
<!DOCTYPE svg PUBLIC "-//W3C//DTD SVG 1.1//EN" "http://www.w3.org/Graphics/SVG/1.1/DTD/svg11.dtd">
<!-- Creator: CorelDRAW 2018 (64-Bit) -->
<svg xmlns="http://www.w3.org/2000/svg" xml:space="preserve" width="52px" height="52px" version="1.1" style="shape-rendering:geometricPrecision; text-rendering:geometricPrecision; image-rendering:optimizeQuality; fill-rule:evenodd; clip-rule:evenodd"
viewBox="0 0 2.47 2.47"
 xmlns:xlink="http://www.w3.org/1999/xlink">
 <defs>
  <style type="text/css">
   <![CDATA[
    .fil0 {fill:#EBECEC}
   ]]>
  </style>
 </defs>
 <g id="Слой_x0020_1">
  <metadata id="CorelCorpID_0Corel-Layer"/>
  <path class="fil0" d="M1.24 0c0.68,0 1.23,0.55 1.23,1.24 0,0.68 -0.55,1.23 -1.23,1.23 -0.69,0 -1.24,-0.55 -1.24,-1.23 0,-0.69 0.55,-1.24 1.24,-1.24zm-0.57 0.8l1.14 0c0.06,0 0.11,0.05 0.11,0.11l0 0c0,0.06 -0.05,0.11 -0.11,0.11l-1.14 0c-0.06,0 -0.11,-0.05 -0.11,-0.11l0 0c0,-0.06 0.05,-0.11 0.11,-0.11zm0 0.33l1.14 0c0.06,0 0.11,0.05 0.11,0.11l0 0c0,0.06 -0.05,0.11 -0.11,0.11l-1.14 0c-0.06,0 -0.11,-0.05 -0.11,-0.11l0 0c0,-0.06 0.05,-0.11 0.11,-0.11zm0 0.33l1.14 0c0.06,0 0.11,0.05 0.11,0.11l0 0c0,0.06 -0.05,0.11 -0.11,0.11l-1.14 0c-0.06,0 -0.11,-0.05 -0.11,-0.11l0 0c0,-0.06 0.05,-0.11 0.11,-0.11z"/>
 </g>
</svg>
