<?xml version="1.0" encoding="utf-8"?>
<!-- Generator: Adobe Illustrator 23.1.0, SVG Export Plug-In . SVG Version: 6.00 Build 0)  -->
<svg version="1.1" id="Слой_1" xmlns="http://www.w3.org/2000/svg" xmlns:xlink="http://www.w3.org/1999/xlink" x="0px" y="0px"
	 viewBox="0 0 31.3 31.3" style="enable-background:new 0 0 31.3 31.3;" xml:space="preserve">
<style type="text/css">
	.st0{fill:#FF8351;}
	.st1{fill:#FEFEFE;stroke:#FEFEFE;stroke-width:0.5669;stroke-miterlimit:10;}
</style>
<path class="st0" d="M15.6,0C7,0,0,7,0,15.6c0,8.6,7,15.6,15.6,15.6c8.6,0,15.6-7,15.6-15.6C31.3,7,24.3,0,15.6,0z"/>
<path class="st1" d="M21.1,24.3c0.1,0.1,0.3,0.2,0.5,0.2c0.1,0,0.3-0.1,0.4-0.2l2.6-2.5c0.1-0.1,0.2-0.3,0.2-0.5
	c0-0.2-0.1-0.3-0.2-0.5l-2.6-2.5c-0.3-0.2-0.7-0.2-0.9,0c-0.2,0.3-0.2,0.7,0,0.9l1.4,1.4H21c-1,0-1.9-0.4-2.6-1.2l-5.6-7.7
	c-0.9-1.2-2.3-1.9-3.7-1.9H7.3c-0.4,0-0.7,0.3-0.7,0.6c0,0.4,0.3,0.7,0.7,0.7h1.8c1.1,0,2.1,0.5,2.7,1.4l5.6,7.7c0,0,0,0,0,0
	c0.9,1.1,2.2,1.7,3.5,1.7h1.6l-1.4,1.4C20.9,23.6,20.9,24,21.1,24.3z"/>
<path class="st1" d="M24.6,10.1l-2.6-2.5c-0.3-0.3-0.7-0.3-0.9,0c-0.3,0.3-0.3,0.7,0,0.9l1.5,1.4H21c-1.4,0-2.7,0.6-3.5,1.7
	c0,0,0,0,0,0l-1,1.4c-0.2,0.3-0.1,0.7,0.1,0.9c0.1,0.1,0.3,0.1,0.4,0.1c0.2,0,0.4-0.1,0.5-0.3l1-1.4c0.6-0.8,1.6-1.2,2.6-1.2h1.6
	l-1.5,1.4c-0.3,0.3-0.3,0.7,0,0.9c0.1,0.1,0.3,0.2,0.5,0.2s0.3-0.1,0.5-0.2l2.6-2.6c0.1-0.1,0.2-0.3,0.2-0.5
	C24.8,10.3,24.7,10.2,24.6,10.1z"/>
<path class="st1" d="M12.8,20l0.9-1.3c0.2-0.3,0.1-0.7-0.1-0.9c-0.3-0.2-0.7-0.1-0.9,0.1l-0.9,1.2c0,0,0,0,0,0
	c-0.6,0.9-1.6,1.4-2.7,1.4H7.3c-0.4,0-0.7,0.3-0.7,0.7c0,0.3,0.3,0.6,0.7,0.6h1.8C10.6,21.9,12,21.2,12.8,20z"/>
</svg>
