<?xml version="1.0" encoding="utf-8"?>
<!-- Generator: Adobe Illustrator 23.1.0, SVG Export Plug-In . SVG Version: 6.00 Build 0)  -->
<svg version="1.1" id="Слой_1" xmlns="http://www.w3.org/2000/svg" xmlns:xlink="http://www.w3.org/1999/xlink" x="0px" y="0px"
	 viewBox="0 0 27.3 27.3" style="enable-background:new 0 0 27.3 27.3;" xml:space="preserve">
<style type="text/css">
	.st0{fill:#FF8351;}
	.st1{fill:none;stroke:#FEFEFE;stroke-width:0.7087;stroke-miterlimit:10;}
	.st2{fill:#FEFEFE;}
	.st3{font-family: arial;}
	.st4{font-size:9.7296px;}
	.st5{fill-rule:evenodd;clip-rule:evenodd;fill:#FEFEFE;}
</style>
<path class="st0" d="M13.6,0C6.1,0,0,6.1,0,13.6c0,7.5,6.1,13.7,13.6,13.7s13.6-6.1,13.6-13.7C27.3,6.1,21.1,0,13.6,0z"/>
<path class="st1" d="M8.8,8.4c0,0,2.8-0.3,2.9-2.6c1.1,1.6,2.8,2.3,4.5,1.4C16.4,9.8,22,6.8,22,6.8c-2.4,2.9-2.8,4.5-1.5,5.5
	c-0.9,1.2-1.7,2.8,1.5,4.2c-2.1,0.3-3.4,1.2-3.5,2.7c-2-0.3-2.8,1-2.7,3.6c-1.6-2.4-3.1-3.5-4.7-2.1c-0.4-1.9-2-1.9-4.1-0.9
	c1.7-2.2,1.4-3.6-0.6-4.3c1.3-1.6,1-3.1-1.4-4.4C8.4,11.1,9.4,10.1,8.8,8.4z"/>
<text transform="matrix(1 0 0 1 11.0831 17.5746)" class="st2 st3 st4">Р</text>
<rect x="11.4" y="14.1" class="st5" width="1.8" height="0.8"/>
<rect x="11.4" y="15.4" class="st5" width="3" height="0.8"/>
</svg>
