<?xml version="1.0" encoding="utf-8"?>
<!-- Generator: Adobe Illustrator 23.1.0, SVG Export Plug-In . SVG Version: 6.00 Build 0)  -->
<svg version="1.1" id="Слой_1" xmlns="http://www.w3.org/2000/svg" xmlns:xlink="http://www.w3.org/1999/xlink" x="0px" y="0px"
	 viewBox="0 0 27.3 27.3" style="enable-background:new 0 0 27.3 27.3;" xml:space="preserve">
<style type="text/css">
	.st0{fill:#F6A720;}
	.st1{fill-rule:evenodd;clip-rule:evenodd;fill:#FEFEFE;}
</style>
<path class="st0" d="M13.6,0C6.1,0,0,6.1,0,13.6c0,7.5,6.1,13.7,13.6,13.7c7.5,0,13.7-6.1,13.7-13.7C27.3,6.1,21.2,0,13.6,0z"/>
<g id="_2214430833504">
	<g>
		<path class="st1" d="M16.8,16.6h-6.4L9.9,18l-0.1,0.3H11c0,0,0,0,0-0.1V18v-0.4c0-0.1,0.1-0.2,0.2-0.2c0.1,0,0.2,0.1,0.2,0.2V18
			v0.2c0,0,0,0,0,0.1h2c0,0,0,0,0-0.1V18v-0.4c0-0.1,0.1-0.2,0.2-0.2c0.1,0,0.2,0.1,0.2,0.2V18v0.2c0,0,0,0,0,0.1h2c0,0,0,0,0-0.1
			V18v-0.4c0-0.1,0.1-0.2,0.2-0.2s0.2,0.1,0.2,0.2V18v0.2c0,0,0,0,0,0.1h1.2L17.4,18L16.8,16.6z"/>
		<path class="st1" d="M22.3,11.2c0-0.1-0.2-0.2-0.3-0.2c-0.5,0-1.1,0-1.6,0c-0.1,0-0.3,0.1-0.3,0.2C20,11.4,20,11.5,20,11.7
			c-0.7-1.4-1.5-2.9-1.5-2.9c-0.1-0.2-0.3-0.4-0.5-0.4C16.6,8.1,15.1,8,13.6,8c-1.4,0-2.9,0.1-4.3,0.4c-0.2,0-0.4,0.2-0.5,0.4
			c0,0-0.8,1.5-1.5,2.9c0-0.1-0.1-0.3-0.1-0.5C7.2,11.1,7,11,6.9,11c-0.5,0-1.1,0-1.6,0C5.2,11,5,11.1,5,11.2
			c-0.1,0.5-0.1,0.8,0,1.2c0.1,0.1,0.2,0.2,0.3,0.2c0.5,0,1.1,0,1.6,0c0,0,0,0,0,0.1c-0.3,0.1-0.6,0.4-0.6,0.8V17v0.2v1.8
			c0,0.2,0.2,0.4,0.4,0.4h2c0.2,0,0.4-0.2,0.4-0.4v-1h0.3l0.7-1.7c0.1-0.1,0.1-0.1,0.2-0.1H17c0.1,0,0.2,0,0.2,0.1l0.7,1.7h0.3v1
			c0,0.2,0.2,0.4,0.4,0.4h2c0.2,0,0.4-0.2,0.4-0.4v-1.8V17v-3.5c0-0.4-0.3-0.7-0.6-0.8c0,0,0,0,0-0.1c0.5,0,1,0,1.6,0
			c0.1,0,0.3-0.1,0.3-0.2C22.5,12,22.5,11.7,22.3,11.2z M9.7,9.2c0,0,1-0.3,3.9-0.3c3,0,4,0.3,4,0.3l1.4,3.4H8.3L9.7,9.2z M7.9,15.1
			V14h2.4l0.7,1.1H7.9z M19.3,15.1h-3.1l0.7-1.1h2.4V15.1z"/>
	</g>
</g>
</svg>
