<?xml version="1.0" encoding="utf-8"?>
<!-- Generator: Adobe Illustrator 23.1.0, SVG Export Plug-In . SVG Version: 6.00 Build 0)  -->
<svg version="1.1" id="Слой_1" xmlns="http://www.w3.org/2000/svg" xmlns:xlink="http://www.w3.org/1999/xlink" x="0px" y="0px"
	 viewBox="0 0 27.3 27.3" style="enable-background:new 0 0 27.3 27.3;" xml:space="preserve">
<style type="text/css">
	.st0{fill:#71B969;}
	.st1{fill-rule:evenodd;clip-rule:evenodd;fill:#FEFEFE;}
</style>
<path class="st0" d="M13.7,0C6.1,0,0,6.1,0,13.6s6.1,13.6,13.7,13.6c7.5,0,13.6-6.1,13.6-13.6S21.2,0,13.7,0z"/>
<g id="_2177864557504">
	<g>
		<path class="st1" d="M22.9,13.2L21,11.3l0.4-2.7c0.1-0.4-0.2-0.7-0.5-0.8l-2.6-0.5L17,5c-0.2-0.3-0.6-0.5-0.9-0.3l-2.4,1.2
			l-2.4-1.2c-0.3-0.2-0.7-0.1-0.9,0.3L9.1,7.4L6.5,7.8C6.1,7.9,5.9,8.2,5.9,8.6l0.4,2.7l-1.9,1.9c-0.3,0.3-0.3,0.7,0,0.9L6.3,16
			l-0.4,2.7c-0.1,0.3,0.2,0.7,0.5,0.7l2.6,0.5l1.2,2.4c0.2,0.3,0.6,0.5,0.9,0.3l2.4-1.2l2.4,1.2c0.1,0.1,0.2,0.1,0.3,0.1
			c0.2,0,0.5-0.1,0.6-0.4l1.2-2.4l2.6-0.5c0.4-0.1,0.6-0.4,0.5-0.7L21,16l1.9-1.9C23.1,13.8,23.1,13.4,22.9,13.2z M19.8,15.3
			c-0.1,0.1-0.2,0.3-0.2,0.5l0.3,2.4l-2.3,0.4c-0.2,0-0.4,0.2-0.5,0.3l-1.1,2.1l-2.1-1C13.9,20,13.7,20,13.7,20
			c-0.1,0-0.2,0-0.3,0.1l-2.1,1L10.1,19c-0.1-0.2-0.3-0.3-0.5-0.3l-2.3-0.4l0.3-2.4c0-0.2-0.1-0.4-0.2-0.5l-1.6-1.7l1.6-1.7
			c0.1-0.1,0.2-0.3,0.2-0.6L7.3,9l2.3-0.4c0.2,0,0.4-0.2,0.5-0.3l1.1-2.1l2.1,1c0.2,0.1,0.4,0.1,0.6,0l2.1-1l1.1,2.1
			c0.1,0.2,0.3,0.3,0.5,0.3L20,9l-0.3,2.3c0,0.2,0.1,0.4,0.2,0.6l1.6,1.7L19.8,15.3z"/>
		<path class="st1" d="M11.5,13.1c0.9,0,1.6-0.7,1.6-1.6c0-0.9-0.7-1.6-1.6-1.6s-1.6,0.7-1.6,1.6C9.9,12.4,10.6,13.1,11.5,13.1z
			 M11.5,10.9c0.3,0,0.6,0.3,0.6,0.5c0,0.3-0.3,0.6-0.6,0.6c-0.3,0-0.6-0.3-0.6-0.6C10.9,11.2,11.2,10.9,11.5,10.9z"/>
		<path class="st1" d="M16.9,10.4c-0.2-0.2-0.5-0.2-0.7,0l-5.8,5.8c-0.2,0.2-0.2,0.5,0,0.8c0.1,0.1,0.2,0.1,0.4,0.1s0.3,0,0.4-0.1
			l5.8-5.8C17.1,10.9,17.1,10.6,16.9,10.4z"/>
		<path class="st1" d="M15.8,14.1c-0.9,0-1.6,0.7-1.6,1.6c0,0.9,0.7,1.6,1.6,1.6c0.9,0,1.6-0.7,1.6-1.6
			C17.4,14.9,16.7,14.1,15.8,14.1z M15.8,16.3c-0.3,0-0.5-0.3-0.5-0.6c0-0.3,0.2-0.5,0.5-0.5s0.6,0.3,0.6,0.5
			C16.4,16.1,16.1,16.3,15.8,16.3z"/>
	</g>
</g>
</svg>
