<?xml version="1.0" encoding="utf-8"?>
<!-- Generator: Adobe Illustrator 23.1.0, SVG Export Plug-In . SVG Version: 6.00 Build 0)  -->
<svg version="1.1" id="Слой_1" xmlns="http://www.w3.org/2000/svg" xmlns:xlink="http://www.w3.org/1999/xlink" x="0px" y="0px"
	 viewBox="0 0 27.3 27.3" style="enable-background:new 0 0 27.3 27.3;" xml:space="preserve">
<style type="text/css">
	.st0{fill:#6B8CC5;}
	.st1{fill-rule:evenodd;clip-rule:evenodd;fill:#FEFEFE;}
</style>
<path class="st0" d="M13.6,0C6.1,0,0,6.1,0,13.6c0,7.5,6.1,13.7,13.6,13.7c7.5,0,13.6-6.1,13.6-13.7C27.3,6.1,21.2,0,13.6,0z"/>
<g id="_2178681065792">
	<g>
		<path class="st1" d="M20.6,9.7c0-0.5,0-0.9,0-1.3c0-0.3-0.3-0.6-0.6-0.6c-2.5,0-4.3-0.7-5.9-2.2c-0.2-0.2-0.6-0.2-0.8,0
			c-1.6,1.5-3.4,2.2-5.9,2.2C7,7.8,6.7,8.1,6.7,8.4c0,0.4,0,0.8,0,1.3c-0.1,4.1-0.2,9.8,6.7,12.2c0.1,0,0.1,0,0.2,0s0.1,0,0.2,0
			C20.7,19.4,20.6,13.8,20.6,9.7z M13.6,20.7c-5.9-2.2-5.8-6.9-5.8-11c0-0.2,0-0.5,0-0.7c2.3-0.1,4.1-0.8,5.7-2.2
			c1.6,1.4,3.4,2.1,5.8,2.2c0,0.2,0,0.5,0,0.7C19.5,13.8,19.6,18.5,13.6,20.7z"/>
		<path class="st1" d="M15.6,11.7l-2.8,2.8l-1.2-1.2c-0.2-0.2-0.6-0.2-0.8,0c-0.2,0.2-0.2,0.6,0,0.8l1.6,1.6
			c0.1,0.1,0.3,0.2,0.4,0.2s0.3-0.1,0.4-0.2l3.2-3.2c0.2-0.2,0.2-0.6,0-0.8S15.8,11.4,15.6,11.7z"/>
	</g>
</g>
</svg>
