<?xml version="1.0" encoding="utf-8"?>
<!-- Generator: Adobe Illustrator 23.1.0, SVG Export Plug-In . SVG Version: 6.00 Build 0)  -->
<svg version="1.1" id="Слой_1" xmlns="http://www.w3.org/2000/svg" xmlns:xlink="http://www.w3.org/1999/xlink" x="0px" y="0px"
	 viewBox="0 0 27.3 27.3" style="enable-background:new 0 0 27.3 27.3;" xml:space="preserve">
<style type="text/css">
	.st0{fill:#3CB6C5;}
	.st1{fill-rule:evenodd;clip-rule:evenodd;fill:#FEFEFE;}
</style>
<path class="st0" d="M13.6,0C6.1,0,0,6.1,0,13.6c0,7.5,6.1,13.7,13.6,13.7c7.5,0,13.6-6.1,13.6-13.7C27.3,6.1,21.2,0,13.6,0z"/>
<path id="XMLID_680_" class="st1" d="M12.9,10.1c-0.1,0.2-0.1,0.3,0.1,0.5l1.2,1.3l-0.4,2.3l-2.3,0.4l-1.2-1.3
	c-0.1-0.1-0.3-0.2-0.5-0.1c-0.2,0.1-0.3,0.2-0.3,0.4c0,0.9,0.4,1.7,1,2.4c1,1,2.5,1.3,3.7,0.9l4.9,5c0.6,0.6,1.6,0.7,2.2,0
	c0.3-0.3,0.5-0.7,0.5-1.1s-0.1-0.9-0.5-1.1l-4.9-5.1c0.4-1.2,0.2-2.7-0.8-3.7c-0.7-0.7-1.5-1-2.4-1.1C13.1,9.8,13,9.9,12.9,10.1z
	 M20.4,20c0.3,0.3,0.3,0.7,0,0.9c-0.3,0.3-0.7,0.3-0.9,0c-0.3-0.3-0.3-0.7,0-1C19.8,19.7,20.2,19.7,20.4,20z"/>
<path class="st1" d="M13.3,8c-3.1,0-5.7,2.6-5.7,5.7c0,3.2,2.6,5.8,5.7,5.8c3.2,0,5.7-2.6,5.7-5.8C19,10.5,16.5,8,13.3,8z
	 M13.3,18.8c-2.8,0-5.1-2.3-5.1-5.1c0-2.8,2.3-5.1,5.1-5.1s5.1,2.3,5.1,5.1C18.4,16.5,16.1,18.8,13.3,18.8z"/>
<path class="st1" d="M21.6,12.1h-0.5c-0.2-1-0.6-2-1.2-2.8l0.4-0.4c0.2-0.2,0.3-0.4,0.3-0.7s-0.1-0.5-0.3-0.7l-0.9-0.9
	c-0.4-0.4-1-0.4-1.3,0l-0.3,0.3c-0.9-0.6-1.8-1-2.8-1.2V5.4c0-0.5-0.4-0.9-0.9-0.9h-1.3c-0.5,0-0.9,0.4-0.9,0.9v0.5
	c-1,0.2-2,0.6-2.8,1.2L8.5,6.7c-0.4-0.4-1-0.4-1.3,0L6.3,7.6C6.1,7.8,6,8,6,8.3s0.1,0.5,0.3,0.7l0.3,0.4c-0.6,0.9-1,1.8-1.2,2.8H5
	c-0.5,0-0.9,0.4-0.9,0.9v1.3c0,0.5,0.4,0.9,0.9,0.9h0.5c0.2,1,0.6,2,1.2,2.8l-0.3,0.3c-0.4,0.4-0.4,1,0,1.3l0.9,0.9
	C7.4,20.9,7.6,21,7.9,21c0.3,0,0.5-0.1,0.7-0.3l0.4-0.4c0.9,0.6,1.8,1,2.8,1.2V22c0,0.5,0.4,1,0.9,1h1.3c0.5,0,0.9-0.4,0.9-1v-0.5
	c1-0.2,2-0.6,2.8-1.2l0.3,0.3c0.2,0.2,0.4,0.3,0.7,0.3c0.2,0,0.5-0.1,0.7-0.3l0.9-0.9c0.4-0.4,0.4-1,0-1.3l-0.4-0.3
	c0.6-0.9,1-1.8,1.2-2.8h0.5c0.5,0,0.9-0.4,0.9-0.9v-1.3C22.5,12.6,22.1,12.1,21.6,12.1z M21.9,14.3c0,0.2-0.1,0.3-0.3,0.3h-0.7
	c-0.1,0-0.3,0.1-0.3,0.3c-0.2,1.1-0.6,2.1-1.3,3c-0.1,0.1-0.1,0.3,0,0.4l0.5,0.5c0.1,0.1,0.1,0.3,0,0.5L19,20.3
	c-0.1,0.1-0.1,0.1-0.2,0.1c-0.1,0-0.2-0.1-0.3-0.1l-0.5-0.5c-0.1-0.1-0.3-0.1-0.4,0c-0.9,0.7-2,1.1-3,1.3c-0.2,0-0.3,0.1-0.3,0.3V22
	c0,0.2-0.2,0.3-0.3,0.3h-1.3c-0.2,0-0.3-0.1-0.3-0.3v-0.7c0-0.1-0.1-0.3-0.3-0.3c-1.1-0.2-2.1-0.6-3-1.3c-0.1,0-0.1-0.1-0.2-0.1
	c-0.1,0-0.2,0-0.2,0.1l-0.5,0.5c-0.1,0.1-0.1,0.1-0.2,0.1c-0.1,0-0.2-0.1-0.3-0.1l-0.9-0.9c-0.1-0.1-0.1-0.3,0-0.5l0.5-0.5
	c0.1-0.1,0.1-0.3,0-0.4c-0.7-0.9-1.1-1.9-1.2-3c0-0.1-0.1-0.3-0.3-0.3H5c-0.2,0-0.3-0.1-0.3-0.3v-1.3c0-0.2,0.2-0.3,0.3-0.3h0.8
	c0.1,0,0.3-0.1,0.3-0.3c0.2-1.1,0.6-2.1,1.2-3c0.1-0.1,0.1-0.3,0-0.4L6.7,8.5C6.7,8.4,6.6,8.4,6.6,8.3s0-0.2,0.1-0.2l0.9-0.9
	C7.8,7,8,7,8.1,7.1l0.5,0.5C8.8,7.8,8.9,7.8,9,7.7c0.9-0.7,1.9-1.1,3-1.3c0.1,0,0.3-0.1,0.3-0.3V5.4c0-0.2,0.1-0.3,0.3-0.3h1.3
	c0.2,0,0.3,0.2,0.3,0.3v0.8c0,0.1,0.1,0.3,0.3,0.3c1.1,0.2,2.1,0.6,3,1.3c0.1,0.1,0.3,0.1,0.4-0.1l0.5-0.5C18.6,7,18.8,7,19,7.1
	l0.9,0.9C19.9,8.1,20,8.2,20,8.3s0,0.2-0.1,0.3L19.3,9c-0.1,0.1-0.1,0.3,0,0.4c0.7,0.9,1.1,1.9,1.3,3c0,0.1,0.1,0.3,0.3,0.3h0.7
	c0.2,0,0.3,0.1,0.3,0.3V14.3z"/>
<path class="st0" d="M13.1,10.2c0,0.1,0,0.1,0,0.1c0,0,0,0.1,0.1,0.1l1.3,1.4l-0.5,2.5l-2.6,0.4l-1.3-1.4c0,0-0.1-0.1-0.1-0.1
	c0,0-0.1,0-0.1,0c0,0-0.1,0.1-0.1,0.1l0,0c0,0.1,0,0.1,0,0.1c0,0.4,0.1,0.8,0.3,1.2c0.1,0.4,0.4,0.7,0.7,1c0.5,0.5,1,0.8,1.6,0.9
	c0.6,0.1,1.3,0.1,1.9-0.1l0.1,0c1.7,1.7,3.3,3.4,5,5.1c0.3,0.3,0.6,0.4,1,0.4c0.4,0,0.7-0.1,1-0.4h0c0.1-0.1,0.2-0.3,0.3-0.5
	c0.1-0.1,0.1-0.3,0.1-0.5c0-0.2,0-0.4-0.1-0.5c-0.1-0.2-0.2-0.3-0.3-0.5l-5-5.2l0.1-0.1c0.2-0.6,0.2-1.2,0.1-1.8
	c-0.1-0.6-0.4-1.2-0.9-1.6c-0.3-0.3-0.6-0.5-1-0.7c-0.4-0.2-0.8-0.3-1.2-0.3c-0.1,0-0.1,0-0.1,0C13.1,10.1,13.1,10.1,13.1,10.2
	L13.1,10.2z M12.7,10.4c0-0.1,0-0.3,0-0.4l0,0c0.1-0.1,0.1-0.2,0.3-0.3c0.1-0.1,0.2-0.1,0.4-0.1c0.5,0,0.9,0.1,1.3,0.3
	c0.4,0.2,0.8,0.5,1.1,0.8c0.5,0.5,0.8,1.1,1,1.8c0.1,0.6,0.1,1.3-0.1,1.9l4.8,5c0.2,0.2,0.3,0.4,0.4,0.6c0.1,0.2,0.1,0.4,0.1,0.7
	c0,0.2-0.1,0.5-0.1,0.7c-0.1,0.2-0.2,0.4-0.4,0.6l0,0c-0.4,0.3-0.8,0.5-1.3,0.5S19.3,22.4,19,22c-1.6-1.6-3.2-3.3-4.8-5
	c-0.6,0.2-1.3,0.2-2,0.1c-0.7-0.2-1.3-0.5-1.8-1c-0.3-0.3-0.6-0.7-0.8-1.2c-0.2-0.4-0.3-0.9-0.3-1.4c0-0.1,0-0.2,0.1-0.3l0,0
	C9.4,13.1,9.6,13,9.7,13c0.1-0.1,0.3-0.1,0.4-0.1c0.1,0,0.2,0.1,0.3,0.2l1.2,1.2l2.1-0.3l0.4-2.1l-1.2-1.2
	C12.8,10.6,12.7,10.5,12.7,10.4z"/>
</svg>
