<?xml version="1.0" encoding="utf-8"?>
<!-- Generator: Adobe Illustrator 23.1.0, SVG Export Plug-In . SVG Version: 6.00 Build 0)  -->
<svg version="1.1" id="Слой_1" xmlns="http://www.w3.org/2000/svg" xmlns:xlink="http://www.w3.org/1999/xlink" x="0px" y="0px"
	 viewBox="0 0 31.3 31.3" style="enable-background:new 0 0 31.3 31.3;" xml:space="preserve">
<style type="text/css">
	.st0{fill:#FF8351;}
	.st1{fill:#FEFEFE;}
	.st2{font-family:'LADAPragmatica-Regular';}
	.st3{font-size:6.0092px;}
	.st4{fill-rule:evenodd;clip-rule:evenodd;fill:#FF8351;}
</style>
<path class="st0" d="M15.6,0C7,0,0,7,0,15.7c0,8.6,7,15.6,15.6,15.6c8.6,0,15.6-7,15.6-15.6C31.3,7,24.3,0,15.6,0z"/>
<path class="st1" d="M25.8,18.8c0-1-0.8-1.8-1.8-1.8c0,0-0.1,0-0.1,0c0.2-0.4,0.3-0.9,0.3-1.4c0-1.2-1.5-3.9-2.5-4.7
	c-0.5,0.1-1.1,0.2-1.7,0.2c-0.6,0-1.2-0.1-1.7-0.2c-1,0.8-2.7,3.5-2.7,4.8c0,0.2,0,0.4,0.1,0.6c-0.3,0-0.6,0-0.9,0
	c-0.8,0-1.5,0.1-2.2,0.2c0-0.3,0-0.4,0-0.4H7.9c0,0-0.2,1.7-0.2,3.8c0,2.1,0.2,3.8,0.2,3.8h4.6c0,0,0-0.5,0.1-1.1
	c0.7-0.1,1.4,0.1,2.2,0.6c1,0.7,2.3,1.1,3.7,1.1c1.4,0,2.6-0.4,3.6-1.1l0,0l0,0c0.3-0.2,0.6-0.4,0.8-0.7c0.2-0.2,0.5-0.5,0.9-0.9
	c1.3-1.3,1.5-1.6,1.5-1.6h0C25.6,19.7,25.8,19.2,25.8,18.8z M24.7,19.4c-0.2,0.2-1.2,1.2-1.5,1.5c-0.7,0.7-1,1-1.2,1.2h0
	c-0.1,0.1-0.2,0.2-0.3,0.3c-0.9,0.6-2,1-3.2,1c-1.2,0-2.3-0.4-3.2-1l0,0c-0.8-0.5-1.7-0.8-2.6-0.7c0.1-0.6,0.1-1.3,0.1-1.9
	c0-0.8-0.1-1.8-0.1-2.6c0.7-0.1,1.4-0.2,2.2-0.2c2.3,0,4.4,0.8,5.6,2c0.1,0.2,0.2,0.4,0.2,0.6c0,0.5-0.4,0.9-0.9,0.9c0,0,0,0-0.1,0
	l0,0c-0.5,0-1.2-0.2-2.5-0.7l-0.3,0.7c1.4,0.5,2.2,0.8,2.9,0.8l0,0c0.8,0,1.5-0.5,1.7-1.2l0,0c0.3-0.5,1.3-1.4,1.9-1.9l0,0
	c0,0,0,0,0,0c0.1-0.1,0.2-0.2,0.3-0.2c0.1-0.1,0.3-0.1,0.5-0.1c0.5,0,0.9,0.4,0.9,0.9C25,19,24.9,19.3,24.7,19.4z"/>
<path class="st1" d="M18.5,10.3c0,0,0.8,0.2,1.6,0.2c0.8,0,1.3-0.1,1.3-0.1c0.5-0.2,1.4-2.5,0.9-3.3c-0.1-0.2-0.3-0.3-0.4-0.3l0,0
	c-0.7,0-1.4,1.3-1.8,1.1c-0.5-0.2-1.6-1.2-2.3-0.8C17,7.5,18,10,18.5,10.3z"/>
<g transform="matrix(1 0 0 1 6355.87 -10177.5)">
	<text transform="matrix(1 0 0 1 -6337.7607 10194.0117)" class="st0 st2 st3">Р</text>
</g>
<rect x="18.3" y="14.4" class="st4" width="1.1" height="0.5"/>
<rect x="18.3" y="15.1" class="st4" width="1.9" height="0.5"/>
</svg>
