<?xml version="1.0" encoding="utf-8"?>
<!-- Generator: Adobe Illustrator 23.1.0, SVG Export Plug-In . SVG Version: 6.00 Build 0)  -->
<svg version="1.1" id="Слой_1" xmlns="http://www.w3.org/2000/svg" xmlns:xlink="http://www.w3.org/1999/xlink" x="0px" y="0px"
	 viewBox="0 0 31.3 31.3" style="enable-background:new 0 0 31.3 31.3;" xml:space="preserve">
<style type="text/css">
	.st0{fill:#FF8351;}
	.st1{fill:#FEFEFE;}
</style>
<path class="st0" d="M15.6,0C7,0,0,7,0,15.7c0,8.6,7,15.6,15.6,15.6s15.6-7,15.6-15.6C31.3,7,24.3,0,15.6,0z"/>
<path class="st1" d="M10.6,22.3c0.3,0.3,0.8,0.2,1.1-0.1l9.1-12.1C21.1,9.7,21,9.2,20.7,9c-0.3-0.3-0.8-0.2-1.1,0.1l-9.1,12.2
	C10.2,21.6,10.3,22.1,10.6,22.3z"/>
<path class="st1" d="M11.8,14.9c1.7,0,3-1.4,3-3s-1.4-3-3-3s-3,1.4-3,3S10.2,14.9,11.8,14.9z M11.8,10.3c0.9,0,1.5,0.7,1.5,1.5
	c0,0.8-0.7,1.5-1.5,1.5c-0.8,0-1.5-0.7-1.5-1.5C10.3,11,11,10.3,11.8,10.3z"/>
<path class="st1" d="M16.4,19.4c0,1.7,1.4,3,3,3s3-1.4,3-3s-1.4-3-3-3S16.4,17.8,16.4,19.4z M20.9,19.4c0,0.9-0.7,1.5-1.5,1.5
	c-0.9,0-1.5-0.7-1.5-1.5c0-0.8,0.7-1.5,1.5-1.5C20.3,17.9,20.9,18.6,20.9,19.4z"/>
</svg>
