<?xml version="1.0" encoding="utf-8"?>
<!-- Generator: Adobe Illustrator 23.1.0, SVG Export Plug-In . SVG Version: 6.00 Build 0)  -->
<svg version="1.1" id="Слой_1" xmlns="http://www.w3.org/2000/svg" xmlns:xlink="http://www.w3.org/1999/xlink" x="0px" y="0px"
	 viewBox="0 0 31.3 31.3" style="enable-background:new 0 0 31.3 31.3;" xml:space="preserve">
<style type="text/css">
	.st0{fill:#FF8351;}
	.st1{fill-rule:evenodd;clip-rule:evenodd;fill:#FEFEFE;}
</style>
<path id="bg" class="st0" d="M15.7,0C7,0,0,7,0,15.6c0,8.6,7,15.7,15.7,15.7c8.6,0,15.6-7,15.6-15.7C31.3,7,24.3,0,15.7,0z"/>
<path id="el1" class="st1" d="M25.8,8.6L12.3,5.7C11.7,5.6,11.1,6,11,6.5l-0.3,1.6l15.6,3.3l0.3-1.6C26.8,9.3,26.4,8.7,25.8,8.6z"/>
<path id="el1_1_" class="st1" d="M20.1,11.8c-0.2-0.6-0.8-0.9-1.3-0.8l-2.6,0.7l-6.1-1.3l-0.7,3.1l-4.2,1.2
	c-0.6,0.2-0.9,0.8-0.7,1.3L7,24.6c0.1,0.6,0.7,0.9,1.3,0.8l13.4-3.7c0.6-0.1,0.9-0.7,0.8-1.3l-0.4-1.5l1.5,0.3
	c0.6,0.1,1.2-0.3,1.3-0.8l1-4.5l-5.4-1.2L20.1,11.8z M21.7,16.1l0.3-1.6c0.1-0.3,0.3-0.4,0.5-0.3l1.6,0.3c0.2,0,0.4,0.3,0.3,0.5
	l-0.3,1.6C24,16.9,23.8,17,23.6,17L22,16.6C21.8,16.6,21.6,16.4,21.7,16.1z M5.6,15.7l3.7-1l8.8-2.4l1-0.3h0c0.1,0,0.2,0.1,0.2,0.1
	l0.1,0.4l0.3,1.2L5.9,17.6l-0.5-1.7C5.4,15.8,5.5,15.7,5.6,15.7z M21.6,20.5c0,0.1,0,0.1,0,0.1c0,0-0.1,0.1-0.1,0.1L8.1,24.5
	c0,0,0,0-0.1,0c-0.1,0-0.2-0.1-0.2-0.1l-1.4-4.9l13.8-3.8l0.8,3L21.6,20.5z"/>
<path id="el1_2_" class="st1" d="M10.2,20.9c-0.1-0.2-0.3-0.4-0.5-0.3L8.1,21c-0.2,0.1-0.4,0.3-0.3,0.5l0.5,1.6
	c0.1,0.2,0.3,0.4,0.5,0.3l1.6-0.4c0.2-0.1,0.4-0.3,0.3-0.5L10.2,20.9z"/>
</svg>
